<svg id="visual" viewBox="0 0 900 50" width="900" height="50" xmlns="http://www.w3.org/2000/svg" xmlns:xlink="http://www.w3.org/1999/xlink" version="1.1"><rect x="0" y="0" width="900" height="50" fill="#ffffff"></rect><path d="M0 16L11.5 15.3C23 14.7 46 13.3 69 12C92 10.7 115 9.3 138.2 11.8C161.3 14.3 184.7 20.7 207.8 22C231 23.3 254 19.7 277 19.8C300 20 323 24 346 24.3C369 24.7 392 21.3 415.2 17.8C438.3 14.3 461.7 10.7 484.8 12.3C508 14 531 21 554 20.7C577 20.3 600 12.7 623 13C646 13.3 669 21.7 692.2 22C715.3 22.3 738.7 14.7 761.8 11.2C785 7.7 808 8.3 831 7.8C854 7.3 877 5.7 888.5 4.8L900 4L900 51L888.5 51C877 51 854 51 831 51C808 51 785 51 761.8 51C738.7 51 715.3 51 692.2 51C669 51 646 51 623 51C600 51 577 51 554 51C531 51 508 51 484.8 51C461.7 51 438.3 51 415.2 51C392 51 369 51 346 51C323 51 300 51 277 51C254 51 231 51 207.8 51C184.7 51 161.3 51 138.2 51C115 51 92 51 69 51C46 51 23 51 11.5 51L0 51Z" fill="#8585ff"></path><path d="M0 16L11.5 17.8C23 19.7 46 23.3 69 27C92 30.7 115 34.3 138.2 34.3C161.3 34.3 184.7 30.7 207.8 27.2C231 23.7 254 20.3 277 20.2C300 20 323 23 346 24.3C369 25.7 392 25.3 415.2 25.2C438.3 25 461.7 25 484.8 24.5C508 24 531 23 554 25.2C577 27.3 600 32.7 623 35C646 37.3 669 36.7 692.2 33C715.3 29.3 738.7 22.7 761.8 22.7C785 22.7 808 29.3 831 32.8C854 36.3 877 36.7 888.5 36.8L900 37L900 51L888.5 51C877 51 854 51 831 51C808 51 785 51 761.8 51C738.7 51 715.3 51 692.2 51C669 51 646 51 623 51C600 51 577 51 554 51C531 51 508 51 484.8 51C461.7 51 438.3 51 415.2 51C392 51 369 51 346 51C323 51 300 51 277 51C254 51 231 51 207.8 51C184.7 51 161.3 51 138.2 51C115 51 92 51 69 51C46 51 23 51 11.5 51L0 51Z" fill="#6873f6"></path><path d="M0 47L11.5 45.7C23 44.3 46 41.7 69 40.5C92 39.3 115 39.7 138.2 37.5C161.3 35.3 184.7 30.7 207.8 31.2C231 31.7 254 37.3 277 40.2C300 43 323 43 346 40.8C369 38.7 392 34.3 415.2 33.3C438.3 32.3 461.7 34.7 484.8 35.2C508 35.7 531 34.3 554 35.3C577 36.3 600 39.7 623 42C646 44.3 669 45.7 692.2 44C715.3 42.3 738.7 37.7 761.8 36C785 34.3 808 35.7 831 35C854 34.3 877 31.7 888.5 30.3L900 29L900 51L888.5 51C877 51 854 51 831 51C808 51 785 51 761.8 51C738.7 51 715.3 51 692.2 51C669 51 646 51 623 51C600 51 577 51 554 51C531 51 508 51 484.8 51C461.7 51 438.3 51 415.2 51C392 51 369 51 346 51C323 51 300 51 277 51C254 51 231 51 207.8 51C184.7 51 161.3 51 138.2 51C115 51 92 51 69 51C46 51 23 51 11.5 51L0 51Z" fill="#4361ee"></path></svg>